PathFileType	4	(X/Y/Z)	C:/Users/opensim2020/Desktop/walking_exp_matlab/subject03_walking06_straight_03.trc	
DataRate	CameraRate	NumFrames	NumMarkers	Units	OrigDataRate	OrigDataStartFrame	OrigNumFrames	
100.00	100.00	8	44	mm	100.00	1995	280	
Frame#	Time	LFHD			RFHD			LBHD			RBHD			C7			T10			CLAV			STRN			RBAK			LSHO			LUPA			LELB			LFRM			LWRA			LWRB			LFIN			RSHO			RUPA			RELB			RFRM			RWRA			RWRB			RFIN			LASI			RASI			LPSI			RPSI			LTHI			LKNE			LTIB			LANK			LHEE			LTOE			RTHI			RKNE			RTIB			RANK			RHEE			RTOE			*39			*40			*41			*42			*43			
		X1	Y1	Z1	X2	Y2	Z2	X3	Y3	Z3	X4	Y4	Z4	X5	Y5	Z5	X6	Y6	Z6	X7	Y7	Z7	X8	Y8	Z8	X9	Y9	Z9	X10	Y10	Z10	X11	Y11	Z11	X12	Y12	Z12	X13	Y13	Z13	X14	Y14	Z14	X15	Y15	Z15	X16	Y16	Z16	X17	Y17	Z17	X18	Y18	Z18	X19	Y19	Z19	X20	Y20	Z20	X21	Y21	Z21	X22	Y22	Z22	X23	Y23	Z23	X24	Y24	Z24	X25	Y25	Z25	X26	Y26	Z26	X27	Y27	Z27	X28	Y28	Z28	X29	Y29	Z29	X30	Y30	Z30	X31	Y31	Z31	X32	Y32	Z32	X33	Y33	Z33	X34	Y34	Z34	X35	Y35	Z35	X36	Y36	Z36	X37	Y37	Z37	X38	Y38	Z38	X39	Y39	Z39	X40	Y40	Z40	X41	Y41	Z41	X42	Y42	Z42	X43	Y43	Z43	X44	Y44	Z44	

1	0.000	1389.90674	-1164.33606	1604.08704	1522.41040	-1159.72681	1608.75256	1398.95984	-1286.83911	1547.32983	1529.65405	-1278.59521	1552.46326	1464.78394	-1301.35474	1405.64233	1469.01318	-1366.10242	1097.75769	1454.82776	-1184.97815	1317.67419	1449.36047	-1160.50293	1148.79700	1570.97278	-1360.20190	1240.89429	1301.59229	-1241.22986	1358.36499	1246.60205	-1297.01855	1162.01794	1242.77283	-1316.76001	1038.86646	1245.16089	-1313.06152	908.23743	1278.92505	-1309.02661	789.50110	1233.54138	-1341.09265	797.46698	1245.91077	-1338.97668	713.00122	1616.30200	-1209.04553	1345.12524	1687.53357	-1191.30676	1123.60840	1692.01318	-1165.53906	1012.81677	1680.31787	-1135.51318	879.55756	1632.30798	-1103.96594	791.73859	1681.27124	-1123.91272	780.11298	1660.97009	-1092.45398	716.43463	1342.06201	-1212.06445	928.34930	1577.44714	-1211.02686	916.96222	1390.36902	-1374.43530	951.24207	1540.85632	-1369.85303	958.75592	1281.04004	-1211.44324	631.77618	1325.43884	-1150.17065	468.40588	1313.40088	-1136.04126	277.77658	1339.11633	-1078.70325	73.35626	1376.78760	-1108.38684	31.99578	1356.34399	-924.32153	61.68913	1622.78101	-1319.75098	635.32349	1593.67297	-1350.54773	458.01459	1606.87415	-1455.66345	294.48126	1570.22986	-1558.52405	99.29043	1523.69299	-1612.93848	78.20068	1546.40247	-1429.74097	35.25099															 
2	0.010	1388.38562	-1156.71655	1604.44006	1520.96973	-1152.29309	1609.16113	1397.36597	-1279.13623	1547.45422	1528.03552	-1271.04077	1552.60925	1462.81311	-1293.61511	1405.69556	1467.46045	-1357.97864	1097.83838	1453.48340	-1177.29163	1317.78833	1448.34521	-1152.27112	1149.11169	1569.09961	-1352.67847	1241.14075	1300.05957	-1232.74011	1358.47522	1244.45422	-1287.05530	1161.62195	1239.72473	-1307.16748	1038.93323	1241.80542	-1302.93408	908.32312	1275.95447	-1298.94385	788.94617	1229.45154	-1330.10339	797.51050	1241.54285	-1328.18164	713.23932	1614.84949	-1201.76794	1345.48779	1686.40125	-1184.88745	1124.08899	1691.19922	-1159.48206	1013.20947	1680.06970	-1130.06934	879.71216	1632.38916	-1098.72046	791.48077	1681.37048	-1118.84497	780.16589	1660.98999	-1087.35352	715.58905	1340.71802	-1203.69910	928.35114	1576.40320	-1203.21252	916.93152	1388.62976	-1365.83398	951.52411	1539.18079	-1361.86145	958.63519	1280.18115	-1202.65527	632.12146	1324.97180	-1143.00830	468.23801	1313.24951	-1132.45679	276.63104	1339.61316	-1078.50696	71.65777	1377.14429	-1108.68872	30.30066	1356.76904	-924.27740	57.31017	1621.65332	-1312.33716	635.54645	1593.09741	-1343.46887	458.18973	1606.49377	-1450.78320	295.97379	1570.41504	-1556.75354	102.54489	1523.85522	-1611.33789	82.37527	1546.43604	-1429.33313	35.13321															 
3	0.020	1386.77405	-1149.30286	1604.92920	1519.42090	-1145.02771	1609.78552	1395.71606	-1271.51807	1547.66687	1526.43286	-1263.47302	1552.93115	1460.77686	-1285.70483	1405.99219	1465.66199	-1349.68506	1098.09045	1452.01953	-1169.31665	1318.17761	1447.28174	-1144.17200	1149.47766	1567.02271	-1345.12170	1241.54309	1298.40002	-1224.01135	1358.50073	1241.99634	-1277.55725	1161.72229	1236.45898	-1296.28931	1038.61987	1238.18860	-1292.25842	908.41693	1272.57043	-1288.47083	788.69165	1225.18445	-1318.73438	797.68530	1236.64661	-1316.54846	713.47626	1613.36438	-1194.51196	1346.09363	1685.09045	-1178.51013	1124.65930	1690.26990	-1153.48145	1013.68048	1679.69702	-1124.60071	879.96906	1632.59460	-1093.52905	791.46606	1681.56177	-1113.89453	780.44067	1661.79736	-1083.10291	715.85425	1339.52246	-1194.66260	928.84186	1575.20837	-1195.16589	917.06750	1386.66565	-1357.09302	951.98572	1537.27405	-1353.76440	958.69281	1279.51953	-1193.72229	632.50330	1324.36633	-1136.58069	467.79892	1313.27283	-1129.07947	275.65018	1339.92725	-1077.04272	70.26407	1377.66443	-1108.36304	29.96361	1357.22620	-923.51984	51.83191	1620.54431	-1304.63879	635.90076	1592.53992	-1335.96484	458.49463	1606.19409	-1445.65588	297.68875	1570.65039	-1554.70056	105.91186	1524.06494	-1609.56702	87.07084	1546.57239	-1428.99976	35.11037															 
4	0.030	1385.08423	-1141.59216	1605.66418	1517.74670	-1137.39417	1610.60852	1394.06140	-1263.50598	1547.90027	1524.73987	-1255.67151	1553.33606	1458.60071	-1277.72058	1406.51904	1463.61096	-1341.24170	1098.53455	1450.59302	-1161.08618	1318.78638	1446.20227	-1135.75244	1150.11670	1564.66492	-1337.52747	1242.17908	1296.59570	-1215.26880	1358.81018	1239.25391	-1268.33521	1161.90442	1233.16699	-1286.13745	1038.92883	1234.62634	-1281.19568	908.68579	1268.48608	-1277.09436	788.93439	1221.04578	-1306.97363	797.88593	1231.62207	-1304.28516	713.78168	1611.63965	-1187.39075	1346.77051	1683.83203	-1172.13672	1125.36951	1689.43042	-1147.57898	1014.31537	1679.42639	-1119.25562	880.40814	1632.76099	-1088.36389	791.47565	1681.68713	-1109.01868	780.82629	1662.03040	-1078.53772	715.81146	1338.22400	-1185.59863	929.49615	1573.98450	-1187.16138	917.35651	1384.61475	-1348.13904	952.69922	1535.34619	-1345.34985	958.88104	1278.99976	-1184.84021	633.15344	1323.73999	-1130.35071	467.50461	1313.41699	-1125.25769	275.37582	1339.52661	-1074.50574	70.11739	1377.19263	-1107.51709	31.39884	1357.72375	-921.53308	46.64517	1619.35107	-1296.47791	636.21222	1591.95081	-1327.97876	458.74872	1605.79614	-1439.97949	299.39429	1571.04089	-1552.24170	109.40096	1524.28467	-1607.37305	91.88755	1546.70459	-1428.64050	34.98301															 
5	0.040	1383.49023	-1133.88843	1606.68652	1516.12109	-1129.64502	1611.66956	1392.38586	-1255.53992	1548.40649	1523.06055	-1247.81897	1553.89624	1456.37671	-1269.66431	1407.29016	1461.57947	-1332.58655	1099.13489	1449.03503	-1152.91016	1319.73938	1444.86011	-1127.23755	1151.05444	1562.16467	-1329.83044	1242.79480	1294.78809	-1206.22119	1359.22559	1236.44568	-1258.53723	1162.46509	1229.70374	-1275.43433	1039.32092	1230.92932	-1269.80273	908.98407	1264.63562	-1265.69434	789.09668	1217.33667	-1295.02734	798.21240	1226.76147	-1291.67505	714.22766	1610.08618	-1180.01245	1347.67529	1682.54370	-1165.77087	1126.15662	1688.51025	-1141.74194	1014.96844	1679.28394	-1114.03308	880.99670	1633.01086	-1083.24878	791.77710	1681.84265	-1104.12842	781.36359	1662.81445	-1073.98145	716.29254	1336.88123	-1176.23877	930.42572	1572.66650	-1179.25317	917.75415	1382.60278	-1338.82263	953.63885	1533.36072	-1336.65112	959.15399	1278.54114	-1176.11597	634.15588	1322.67236	-1125.04248	467.53445	1312.40076	-1120.75330	275.73077	1338.59534	-1071.67029	69.86491	1376.89392	-1106.33679	33.31424	1358.48230	-918.91479	43.92376	1618.10583	-1287.82117	636.55878	1591.40552	-1319.29980	458.99164	1605.49866	-1433.68469	301.32526	1571.42688	-1549.40955	113.12196	1524.71753	-1604.79944	97.41631	1546.90125	-1428.24939	34.80141															 
6	0.050	1381.80225	-1126.09070	1607.85181	1514.37073	-1121.90637	1612.84082	1390.64868	-1247.67542	1549.13647	1521.36853	-1239.83228	1554.66541	1454.19226	-1261.42505	1408.33252	1459.57141	-1323.89929	1099.95313	1447.36060	-1144.70276	1320.62231	1443.55115	-1118.56702	1152.04187	1559.54968	-1322.03320	1243.50037	1292.93103	-1197.16418	1359.84985	1233.90369	-1247.21497	1162.82471	1226.25195	-1264.33093	1039.87231	1227.34814	-1258.01428	909.70917	1260.67798	-1253.81433	789.79987	1212.85095	-1282.84082	798.84521	1221.90698	-1278.53613	714.86566	1608.43103	-1172.72827	1348.74353	1681.05273	-1159.46729	1127.16138	1687.62805	-1135.96790	1015.91064	1678.97375	-1108.82349	881.73651	1633.25183	-1078.12769	792.10303	1681.98010	-1099.46313	782.08813	1663.34119	-1069.57007	716.70923	1335.55627	-1166.93359	931.54803	1571.23950	-1171.41760	918.33081	1380.64722	-1329.45642	954.90192	1531.48901	-1327.67725	959.69275	1278.04065	-1167.90112	635.34473	1321.53076	-1119.67627	467.73590	1310.81055	-1116.01868	276.01306	1338.02271	-1068.84192	69.69617	1375.89368	-1104.45496	34.21605	1358.41650	-916.24689	42.19661	1616.83960	-1278.75293	636.98987	1590.92993	-1309.89343	459.24661	1605.30371	-1426.99805	303.43414	1571.67542	-1546.30750	117.33339	1524.80310	-1601.77039	103.26522	1546.96741	-1427.73413	34.76482															 
7	0.060	1380.15283	-1118.28650	1609.04834	1512.62646	-1114.24622	1614.10925	1388.94507	-1239.58813	1549.92236	1519.62146	-1231.82690	1555.46472	1451.93884	-1253.10767	1409.40210	1457.41174	-1315.18042	1100.86499	1445.74902	-1136.39099	1321.77136	1441.90527	-1109.79236	1153.32715	1556.91711	-1314.12329	1244.33740	1291.09875	-1188.03528	1360.59497	1230.74927	-1237.02490	1163.44812	1222.73657	-1252.59863	1040.50098	1223.63257	-1245.87500	910.20673	1256.94995	-1241.89160	790.32123	1208.89136	-1269.77698	799.20062	1217.26855	-1265.08191	715.59845	1606.73499	-1165.19995	1349.97791	1679.71570	-1153.28235	1128.35266	1686.73389	-1130.25317	1017.04651	1678.59290	-1103.65869	882.60663	1633.34863	-1073.35815	792.60675	1682.08105	-1094.83081	782.96576	1663.96936	-1065.46069	717.45441	1334.04492	-1157.34631	933.02094	1569.65991	-1163.71350	919.02777	1378.77051	-1320.03589	956.41760	1529.63782	-1318.52124	960.41779	1277.54700	-1160.22327	636.60968	1320.48157	-1114.04187	468.15820	1309.54956	-1111.32312	276.29843	1337.79150	-1067.00159	69.56923	1375.50171	-1103.51855	35.17926	1357.67908	-914.19019	40.61939	1615.58545	-1269.28308	637.46454	1590.41675	-1299.82568	459.47870	1605.01123	-1419.70520	305.61807	1571.99780	-1542.65405	122.24701	1524.87439	-1598.17249	109.64596	1546.90955	-1427.11731	34.78876															 
8	0.070	1378.54700	-1110.16248	1610.53589	1511.22119	-1106.33801	1615.57104	1387.21606	-1231.33411	1550.82239	1517.93933	-1223.71790	1556.31152	1449.64136	-1244.76990	1410.37097	1455.12866	-1306.41516	1101.82935	1443.98865	-1127.99316	1323.02979	1440.22803	-1101.24658	1154.54053	1554.19141	-1306.12061	1245.20593	1289.19055	-1178.81299	1361.57104	1227.83093	-1225.86121	1164.39075	1219.26343	-1240.68567	1041.35388	1220.05042	-1233.47156	911.06775	1253.08838	-1229.40784	791.33154	1204.39575	-1256.65222	800.18524	1212.81519	-1251.19153	716.46393	1604.94727	-1157.62219	1351.25720	1678.29358	-1146.99817	1129.68787	1685.73633	-1124.51453	1018.28235	1678.62842	-1098.59900	883.99524	1633.58862	-1068.15320	793.48242	1682.15991	-1090.29199	784.02838	1664.41248	-1061.14648	718.08374	1332.63940	-1147.74805	934.67096	1568.41699	-1151.45508	920.35443	1376.96533	-1310.49609	958.10156	1527.79980	-1309.25854	961.27637	1276.95435	-1152.70667	638.02252	1319.51770	-1107.50171	468.60483	1308.61890	-1106.35022	276.56076	1337.76599	-1065.98645	69.55741	1375.25952	-1103.08411	35.42572	1357.44849	-912.94037	39.52161	1614.37256	-1259.25623	637.82153	1589.99756	-1288.82434	459.59015	1604.74463	-1411.77368	307.93408	1571.93738	-1538.23279	127.43880	1524.67664	-1593.75085	116.39296	1546.84680	-1426.36731	34.90293															 
